HIERARCHY
ROOT Hips
{
	OFFSET 0.000000 0.000000 0.000000
	CHANNELS 6 Xposition Yposition Zposition Zrotation Yrotation Xrotation 
	JOINT LowerBack
	{
		OFFSET 0.000000 0.000000 0.000000
		CHANNELS 3 Zrotation Yrotation Xrotation
		JOINT Spine
		{
			OFFSET 0.028270 2.035590 -0.193380
			CHANNELS 3 Zrotation Yrotation Xrotation
			JOINT Spine1
			{
				OFFSET 0.056720 2.048850 -0.042750
				CHANNELS 3 Zrotation Yrotation Xrotation
				JOINT Neck
				{
					OFFSET 0.000000 0.000000 0.000000
					CHANNELS 3 Zrotation Yrotation Xrotation
					JOINT Neck1
					{
						OFFSET -0.054170 1.746240 0.172020
						CHANNELS 3 Zrotation Yrotation Xrotation
						JOINT Head
						{
							OFFSET 0.104070 1.761360 -0.123970
							CHANNELS 3 Zrotation Yrotation Xrotation
							End Site
							{
								OFFSET 0.000000 0.000000 0.000000
							}
						}
					}
				}
				JOINT LeftShoulder
				{
					OFFSET 0.000000 0.000000 0.000000
					CHANNELS 3 Zrotation Yrotation Xrotation
					JOINT LeftArm
					{
						OFFSET 3.362410 1.200890 -0.311210
						CHANNELS 3 Zrotation Yrotation Xrotation
						JOINT LeftForeArm
						{
							OFFSET 4.983000 -0.000000 -0.000000
							CHANNELS 3 Zrotation Yrotation Xrotation
							JOINT LeftHand
							{
								OFFSET 3.483560 -0.000000 -0.000000
								CHANNELS 3 Zrotation Yrotation Xrotation
								JOINT LeftFingerBase
								{
									OFFSET 0.000000 0.000000 0.000000
									CHANNELS 3 Zrotation Yrotation Xrotation
									JOINT LeftHandIndex1
									{
										OFFSET 0.715260 -0.000000 -0.000000
										CHANNELS 3 Zrotation Yrotation Xrotation
										End Site
										{
											OFFSET 0.000000 0.000000 0.000000
										}
									}
								}
								JOINT LThumb
								{
									OFFSET 0.000000 0.000000 0.000000
									CHANNELS 3 Zrotation Yrotation Xrotation
									End Site
									{
										OFFSET 0.000000 0.000000 0.000000
									}
								}
							}
						}
					}
				}
				JOINT RightShoulder
				{
					OFFSET 0.000000 0.000000 0.000000
					CHANNELS 3 Zrotation Yrotation Xrotation
					JOINT RightArm
					{
						OFFSET -3.136600 1.374050 -0.404650
						CHANNELS 3 Zrotation Yrotation Xrotation
						JOINT RightForeArm
						{
							OFFSET -5.241900 -0.000000 -0.000000
							CHANNELS 3 Zrotation Yrotation Xrotation
							JOINT RightHand
							{
								OFFSET -3.444170 -0.000000 -0.000000
								CHANNELS 3 Zrotation Yrotation Xrotation
								JOINT RightFingerBase
								{
									OFFSET 0.000000 0.000000 0.000000
									CHANNELS 3 Zrotation Yrotation Xrotation
									JOINT RightHandIndex1
									{
										OFFSET -0.622530 -0.000000 -0.000000
										CHANNELS 3 Zrotation Yrotation Xrotation
										End Site
										{
											OFFSET 0.000000 0.000000 0.000000
										}
									}
								}
								JOINT RThumb
								{
									OFFSET 0.000000 0.000000 0.000000
									CHANNELS 3 Zrotation Yrotation Xrotation
									End Site
									{
										OFFSET 0.000000 0.000000 0.000000
									}
								}
							}
						}
					}
				}
			}
		}
	}
}
}
MOTION
Frames: 9
Frame Time: 0.008333
-0.762590 17.016252 -0.745003 12.642994 81.006290 22.293953 2.181730 -6.012132 -5.720220 0.207393 -6.335644 -3.624297 -6.129022 -6.365671 1.540127 9.754912 -18.224580 -9.381957 -3.627223 -0.262940 -0.385343 0.000000 0.000000 0.000000 0.617748 3.275356 0.600038 -53.117279 -15.130785 0.152532 -1.579346 -62.476456 -0.047159 10.187701 -2.747308 -0.276228 -0.147448 0.331216 -0.000000 0.000000 0.000000 0.000000 0.000000 0.000000 0.000000 17.851056 -17.490012 0.205583 64.158717 -11.539761 -14.485022 2.426363 44.577600 0.001694 -3.448681 2.659793 -0.084977 0.122370 -0.086991 0.000000 0.000000 0.000000 0.000000 0.000000 0.000000 0.000000 
-0.584760 17.026888 -0.685978 8.747279 80.414813 18.382039 2.650208 -5.834568 -5.681325 0.283867 -6.200711 -3.643063 -6.152920 -6.231215 1.471881 9.751353 -17.962603 -9.331764 -3.643817 -0.265060 -0.372448 0.000000 0.000000 0.000000 0.547109 3.357176 0.584939 -54.076113 -14.346201 0.338514 -1.605892 -62.258556 -0.045451 10.108608 -2.807145 -0.278857 -0.146266 0.324279 -0.000000 0.000000 0.000000 0.000000 0.000000 0.000000 0.000000 17.812571 -17.114497 0.218964 64.168264 -10.946357 -13.918412 2.421415 44.620090 0.001502 -3.474909 2.639164 -0.084970 0.121737 -0.088519 0.000000 0.000000 0.000000 0.000000 0.000000 0.000000 0.000000 
-0.411628 17.036336 -0.625572 5.585350 79.815316 15.201289 3.048418 -5.670441 -5.610630 0.345330 -6.073117 -3.653195 -6.182232 -6.104293 1.400774 9.779843 -17.680137 -9.276808 -3.662027 -0.267280 -0.358651 0.000000 0.000000 0.000000 0.539612 3.412621 0.574476 -55.059469 -13.541017 0.534181 -1.632428 -61.935879 -0.043614 10.005328 -2.852801 -0.279394 -0.144682 0.316817 -0.000000 0.000000 0.000000 0.000000 0.000000 0.000000 0.000000 17.814072 -16.724308 0.229599 64.219385 -10.292662 -13.289054 2.412638 44.675976 0.001329 -3.486922 2.630852 -0.085063 0.120720 -0.090230 0.000000 0.000000 0.000000 0.000000 0.000000 0.000000 0.000000 
-0.243021 17.044794 -0.563340 3.190179 79.222286 12.787571 3.347293 -5.523141 -5.518547 0.386089 -5.953686 -3.655719 -6.217136 -5.985709 1.330972 9.842991 -17.391310 -9.221212 -3.682035 -0.269579 -0.344989 0.000000 0.000000 0.000000 0.584991 3.446113 0.569296 -56.043063 -12.725091 0.745390 -1.659443 -61.509020 -0.041616 9.870870 -2.878893 -0.277239 -0.142689 0.308709 -0.000000 0.000000 0.000000 0.000000 0.000000 0.000000 0.000000 17.864933 -16.334668 0.236074 64.303136 -9.569324 -12.583419 2.400399 44.736856 0.001178 -3.496103 2.641250 -0.085655 0.119436 -0.092131 0.000000 0.000000 0.000000 0.000000 0.000000 0.000000 0.000000 
-0.078560 17.052449 -0.499458 1.416591 78.641208 10.999178 3.554414 -5.389432 -5.414508 0.407125 -5.839914 -3.652866 -6.259137 -5.872876 1.263628 9.936555 -17.090622 -9.164907 -3.705091 -0.272066 -0.331438 0.000000 0.000000 0.000000 0.663360 3.471280 0.571697 -57.007278 -11.916819 0.980015 -1.688782 -60.972858 -0.039433 9.699093 -2.881201 -0.271891 -0.140329 0.299876 -0.000000 0.000000 0.000000 0.000000 0.000000 0.000000 0.000000 17.966631 -15.937319 0.237604 64.414074 -8.789176 -11.813594 2.385066 44.806162 0.001055 -3.500154 2.673625 -0.086746 0.117883 -0.094256 0.000000 0.000000 0.000000 0.000000 0.000000 0.000000 0.000000 
0.082200 17.059730 -0.433925 0.177922 78.076918 9.752650 3.670566 -5.267876 -5.308215 0.408476 -5.730658 -3.646348 -6.308628 -5.764604 1.201292 10.057460 -16.783584 -9.109720 -3.731833 -0.274786 -0.318456 0.000000 0.000000 0.000000 0.757028 3.497522 0.582405 -57.933205 -11.125831 1.243298 -1.721702 -60.329426 -0.037053 9.484979 -2.855422 -0.262848 -0.137621 0.290221 -0.000000 0.000000 0.000000 0.000000 0.000000 0.000000 0.000000 18.121554 -15.537042 0.233274 64.543204 -7.950879 -10.976323 2.367348 44.876610 0.000961 -3.503996 2.731273 -0.088736 0.116139 -0.096609 0.000000 0.000000 0.000000 0.000000 0.000000 0.000000 0.000000 
0.239838 17.067012 -0.366843 -0.634715 77.531522 8.941852 3.705919 -5.156009 -5.208085 0.392098 -5.624622 -3.638072 -6.365915 -5.659588 1.144969 10.200375 -16.467675 -9.054992 -3.763178 -0.277834 -0.305848 0.000000 0.000000 0.000000 0.848669 3.534568 0.602253 -58.807246 -10.360171 1.539046 -1.759618 -59.580812 -0.034475 9.225979 -2.799108 -0.250209 -0.134612 0.279690 -0.000000 0.000000 0.000000 0.000000 0.000000 0.000000 0.000000 18.328568 -15.129927 0.222436 64.684254 -7.063298 -10.078868 2.347775 44.946137 0.000896 -3.506211 2.814200 -0.091425 0.114225 -0.099184 0.000000 0.000000 0.000000 0.000000 0.000000 0.000000 0.000000 
0.394853 17.074746 -0.298244 -1.096544 77.005648 8.492701 3.667545 -5.052558 -5.120229 0.359895 -5.521360 -3.628799 -6.429329 -5.557385 1.098014 10.360566 -16.158217 -9.004019 -3.798424 -0.281133 -0.294459 0.000000 0.000000 0.000000 0.923043 3.588085 0.629828 -59.618944 -9.621135 1.864961 -1.803047 -58.736136 -0.031730 8.920980 -2.709097 -0.233873 -0.131314 0.268249 0.000000 0.000000 0.000000 0.000000 0.000000 0.000000 0.000000 18.583709 -14.732268 0.204936 64.828149 -6.109346 -9.101806 2.327542 44.995852 0.000854 -3.517039 2.923333 -0.095211 0.112296 -0.101956 0.000000 0.000000 0.000000 0.000000 0.000000 0.000000 0.000000 
0.547748 17.083245 -0.228387 -1.310304 76.497638 8.303500 3.572032 -4.954817 -5.049831 0.315112 -5.419820 -3.620655 -6.499108 -5.457030 1.057785 10.530769 -15.835534 -8.950840 -3.839036 -0.284876 -0.282680 0.000000 0.000000 0.000000 0.970407 3.664302 0.666168 -60.366000 -8.909223 2.219520 -1.853044 -57.799361 -0.028860 8.572885 -2.586928 -0.214540 -0.127817 0.255959 -0.000000 0.000000 0.000000 0.000000 0.000000 0.000000 0.000000 18.881296 -14.321907 0.180823 64.976573 -5.119723 -8.074797 2.306524 45.036690 0.000836 -3.520815 3.051099 -0.099397 0.110222 -0.104894 0.000000 0.000000 0.000000 0.000000 0.000000 0.000000 0.000000 
